<svg width="113" height="113" viewBox="0 0 113 113" fill="none" xmlns="http://www.w3.org/2000/svg">
<path d="M42.6451 3.1469C42.6449 -0.121507 47.1299 -1.03401 48.4067 1.97468L64.8921 40.8206C65.3625 41.9289 66.4499 42.6487 67.654 42.6486L109.853 42.6452C113.122 42.6449 114.034 47.1299 111.025 48.4068L72.1795 64.8921C71.0711 65.3625 70.3513 66.4499 70.3514 67.654L70.3549 109.853C70.3551 113.122 65.8701 114.034 64.5933 111.025L48.1079 72.1795C47.6375 71.0711 46.5501 70.3514 45.346 70.3514L3.14687 70.3549C-0.121537 70.3552 -1.03404 65.8701 1.97465 64.5933L40.8205 48.1079C41.9289 47.6376 42.6487 46.5501 42.6486 45.3461L42.6451 3.1469Z" fill="#E7B31C"/>
</svg>
