<svg width="51" height="33" viewBox="0 0 51 33" fill="none" xmlns="http://www.w3.org/2000/svg">
<path d="M14.128 0.607998C16.272 0.607998 18.64 1.024 21.232 1.856C21.808 2.304 22.096 2.8 22.096 3.344C22.096 3.856 21.824 4.32 21.28 4.736C20.768 5.12 20.176 5.312 19.504 5.312C17.776 4.864 16.16 4.64 14.656 4.64C11.2 4.64 8.576 5.664 6.784 7.712C4.992 9.76 4.096 12.8 4.096 16.832C4.096 20.864 5.152 24.016 7.264 26.288C8.352 27.472 9.648 28.064 11.152 28.064C12.656 28.064 15.056 27.264 18.352 25.664C19.504 25.12 20.272 24.848 20.656 24.848C21.488 24.848 21.904 25.28 21.904 26.144C21.904 27.008 21.504 27.728 20.704 28.304C17.952 29.744 15.808 30.72 14.272 31.232C12.736 31.712 11.408 31.952 10.288 31.952C7.984 31.952 6.016 31.104 4.384 29.408C1.472 26.272 0.0160002 22 0.0160002 16.592C0.0160002 11.152 1.392 7.136 4.144 4.544C6.928 1.92 10.256 0.607998 14.128 0.607998Z" fill="#E7B31C"/>
<path d="M48.9209 0.0319996C49.6889 0.0319996 50.1849 0.591999 50.4089 1.712C50.5689 6.928 50.6489 12.624 50.6489 18.8C50.6489 24.944 50.6169 28.496 50.5529 29.456C50.4889 30.416 50.2809 31.088 49.9289 31.472C49.5769 31.856 48.9369 32.048 48.0089 32.048C47.1769 32.048 46.7609 31.536 46.7609 30.512V19.664C46.7609 17.904 46.7289 16.096 46.6649 14.24C46.6009 12.384 46.5689 11.216 46.5689 10.736C45.4809 12.592 44.0409 14.128 42.2489 15.344C40.4569 16.528 38.4569 17.12 36.2489 17.12C34.0409 17.12 32.1849 16.208 30.6809 14.384C30.6169 16.336 30.5849 18.656 30.5849 21.344C30.5849 24 30.6009 26.8 30.6329 29.744C30.6329 30.544 30.3609 31.136 29.8169 31.52C29.3049 31.872 28.7129 32.048 28.0409 32.048C27.1769 32.048 26.7449 31.52 26.7449 30.464C26.7769 27.584 26.7929 23.024 26.7929 16.784V3.152C26.7929 2.608 26.9689 2.08 27.3209 1.568C27.7049 1.056 28.1369 0.799998 28.6169 0.799998C29.1289 0.799998 29.5929 0.943998 30.0089 1.232C30.4249 1.488 30.6489 1.888 30.6809 2.432C30.8089 5.984 31.3849 8.624 32.4089 10.352C33.4329 12.08 34.6489 12.944 36.0569 12.944C37.4649 12.944 38.6649 12.72 39.6569 12.272C40.6809 11.792 41.5129 11.248 42.1529 10.64C42.8249 10.032 43.4649 9.168 44.0729 8.048C44.9369 6.448 45.7689 4.48 46.5689 2.144C47.0489 0.735999 47.8329 0.0319996 48.9209 0.0319996Z" fill="#EB758F"/>
</svg>
