<svg xmlns="http://www.w3.org/2000/svg" width="64" height="67" fill="none" xmlns:v="https://vecta.io/nano"><path fill-rule="evenodd" d="M34.867 2.712c-.349-3.616-5.624-3.616-5.972 0l-.763 7.91a3.77 3.77 0 0 0 3.749 4.128h0a3.77 3.77 0 0 0 3.749-4.128l-.763-7.91zm18.552 19.806c-1.785.441-3.038 2.042-3.038 3.88h0c0 3.094 3.364 5.015 6.029 3.442l5.862-3.459c2.977-1.757 1.112-6.325-2.244-5.496l-6.608 1.633zm-6.056 32.585a3.93 3.93 0 0 0-3.598-2.352h0c-3.22 0-5.072 3.66-3.165 6.255l4.954 6.74c2.121 2.885 6.602.3 5.165-2.98l-3.356-7.662zm-24.202 3.902c1.907-2.594.054-6.255-3.165-6.255h0a3.93 3.93 0 0 0-3.598 2.352l-3.356 7.662c-1.437 3.28 3.045 5.865 5.165 2.98l4.954-6.74zM8.944 30.78c2.845 1.679 6.437-.372 6.437-3.676h0a4.27 4.27 0 0 0-3.244-4.143l-8.402-2.076c-3.356-.829-5.221 3.739-2.244 5.496l7.454 4.399z" fill="#82ad46"/></svg>